<svg width="64" height="64" viewBox="0 0 64 64" fill="none" xmlns="http://www.w3.org/2000/svg">
<g clip-path="url(#clip0_4_185)">
<path d="M34.929 7.62901C34.724 7.11601 34.142 6.86601 33.632 7.07201C33.119 7.27501 32.868 7.85601 33.07 8.36901C33.089 8.41601 34.91 13.173 33.038 19.725C33.038 19.725 33.037 19.732 33.037 19.736C31.822 20.839 30.578 22.007 29.293 23.293C27.936 24.65 26.702 25.964 25.548 27.241C26.546 18.058 25.05 11.113 24.977 10.783C24.857 10.244 24.323 9.90701 23.784 10.023C23.245 10.143 22.905 10.677 23.024 11.216C23.043 11.302 24.847 19.685 23.154 29.979C20.894 32.674 19.104 35.119 17.69 37.24C18.399 29.34 17.046 23.095 16.977 22.783C16.857 22.244 16.327 21.897 15.784 22.024C15.245 22.143 14.905 22.677 15.024 23.216C15.044 23.303 16.909 31.966 15.072 41.513C13.689 44.001 13.119 45.501 13.062 45.654C12.872 46.172 13.136 46.746 13.654 46.937C13.768 46.979 13.885 47 14 47C14.406 47 14.788 46.75 14.938 46.347C14.951 46.313 15.438 45.045 16.622 42.879C27.06 40.153 36.617 42.93 36.714 42.958C36.809 42.986 36.905 43 37 43C37.431 43 37.828 42.72 37.958 42.286C38.116 41.758 37.816 41.201 37.287 41.042C36.897 40.924 28.2 38.391 18 40.506C19.416 38.19 21.406 35.288 24.108 31.986C24.16 31.98 24.212 31.978 24.262 31.965C34.857 29.076 45.629 31.936 45.737 31.965C45.825 31.988 45.913 32 46 32C46.44 32 46.844 31.708 46.965 31.263C47.11 30.73 46.796 30.181 46.263 30.035C45.838 29.919 36.462 27.437 26.251 29.459C27.592 27.935 29.065 26.35 30.707 24.707C32.117 23.297 33.484 22.014 34.81 20.827C41.262 19.178 47.662 20.943 47.726 20.962C47.817 20.987 47.909 21 48 21C48.436 21 48.836 20.713 48.961 20.273C49.112 19.743 48.806 19.19 48.274 19.038C48.035 18.971 43.374 17.671 37.801 18.259C46.332 11.238 52.273 8.96501 52.346 8.93801C52.864 8.74701 53.128 8.17101 52.937 7.65401C52.746 7.13501 52.171 6.87501 51.654 7.06201C51.328 7.18201 44.849 9.64201 35.586 17.493C36.527 11.735 35.004 7.81601 34.929 7.62901Z" fill="#337200"/>
<path d="M60.893 1.54901C60.757 1.28001 60.507 1.08701 60.214 1.02401C57.234 0.372007 53.244 0.0420074 48.358 0.0420074C43.436 0.0420074 37.794 0.395007 32.877 1.00901C17.641 2.91201 6.99997 13.601 6.99997 27V45.678L3.10297 60.225C2.67497 61.823 3.62597 63.469 5.22497 63.899C6.82297 64.325 8.46997 63.374 8.89797 61.778L11.25 53H31C45.337 53 57 41.337 57 27C57 20.337 57 11.212 60.914 2.40601C61.036 2.13201 61.028 1.81601 60.893 1.54901ZM6.96597 61.26C6.82297 61.792 6.27497 62.109 5.74197 61.967C5.20797 61.822 4.89097 61.276 5.03397 60.742L7.58597 51.056C7.99097 51.728 8.58397 52.268 9.29797 52.606L6.96597 61.26ZM55 27C55 40.233 44.233 51 31 51H11C9.89597 51 8.99997 50.104 8.99997 49V48V27C8.99997 14.641 18.92 4.76901 33.124 2.99201C37.963 2.38801 43.515 2.04101 48.357 2.04101C52.405 2.04101 55.91 2.28301 58.595 2.74601C55 11.565 55 20.443 55 27Z" fill="#337200"/>
</g>
<defs>
<clipPath id="clip0_4_185">
<rect width="64" height="64" fill="white"/>
</clipPath>
</defs>
</svg>
